<svg xmlns="http://www.w3.org/2000/svg" xmlns:xlink="http://www.w3.org/1999/xlink" width="50" height="43.4" viewBox="0 0 50 43.4"><defs><path id="a" d="M0 0h50v43.4H0z"/></defs><clipPath id="b"><use xlink:href="#a" overflow="visible"/></clipPath><path class="clientes" clip-path="url(#b)" fill="#FFF" d="M49 26.937H27.994a.5.5 0 0 1 0-1H48.49c-.264-6.604-5.718-11.896-12.387-11.896a12.409 12.409 0 0 0-9.055 3.94l-.729-.684.01-.009a13.398 13.398 0 0 1 9.774-4.247c7.388 0 13.396 6.01 13.396 13.396a.5.5 0 0 1-.499.5"/><path class="clientes" clip-path="url(#b)" fill="none" stroke="#000" stroke-miterlimit="10" d="M49 26.937H27.994a.5.5 0 0 1 0-1H48.49c-.264-6.604-5.718-11.896-12.387-11.896a12.409 12.409 0 0 0-9.055 3.94l-.729-.684.01-.009a13.398 13.398 0 0 1 9.774-4.247c7.388 0 13.396 6.01 13.396 13.396a.5.5 0 0 1-.499.5z"/><path class="clientes" clip-path="url(#b)" fill="#FFF" d="M36.106 14.043c-.906 0-1.794-.277-2.641-.823a6.852 6.852 0 0 1-1.729-1.603c-1.138-1.448-1.798-3.286-1.798-4.949A6.175 6.175 0 0 1 36.105.5c3.395 0 6.156 2.767 6.156 6.168.002 3.341-2.744 7.375-6.155 7.375m0-12.543a5.173 5.173 0 0 0-5.167 5.168c0 1.447.581 3.056 1.555 4.303.459.589.967 1.062 1.511 1.407.686.442 1.392.665 2.102.665 2.777 0 5.156-3.505 5.156-6.375 0-2.85-2.314-5.168-5.157-5.168"/><path class="clientes" clip-path="url(#b)" fill="none" stroke="#000" stroke-miterlimit="10" d="M36.106 14.043c-.906 0-1.794-.277-2.641-.823a6.852 6.852 0 0 1-1.729-1.603c-1.138-1.448-1.798-3.286-1.798-4.949A6.175 6.175 0 0 1 36.105.5c3.395 0 6.156 2.767 6.156 6.168.002 3.341-2.744 7.375-6.155 7.375zm0-12.543a5.173 5.173 0 0 0-5.167 5.168c0 1.447.581 3.056 1.555 4.303.459.589.967 1.062 1.511 1.407.686.442 1.392.665 2.102.665 2.777 0 5.156-3.505 5.156-6.375 0-2.85-2.314-5.168-5.157-5.168z"/><path class="clientes" clip-path="url(#b)" fill="#FFF" d="M37.436 42.9H1a.5.5 0 0 1-.5-.5c0-10.321 8.397-18.718 18.718-18.718S37.936 32.078 37.936 42.4a.5.5 0 0 1-.5.5m-35.929-1h35.422c-.266-9.54-8.109-17.218-17.711-17.218C9.615 24.683 1.773 32.36 1.507 41.9"/><path class="clientes" clip-path="url(#b)" fill="none" stroke="#000" stroke-miterlimit="10" d="M37.436 42.9H1a.5.5 0 0 1-.5-.5c0-10.321 8.397-18.718 18.718-18.718S37.936 32.078 37.936 42.4a.5.5 0 0 1-.5.5zm-35.929-1h35.422c-.266-9.54-8.109-17.218-17.711-17.218C9.615 24.683 1.773 32.36 1.507 41.9z"/><path class="clientes" clip-path="url(#b)" fill="#FFF" d="M19.221 24.688c-4.712 0-8.507-5.587-8.507-10.214 0-4.691 3.817-8.507 8.507-8.507 4.691 0 8.508 3.816 8.508 8.507 0 2.282-.916 4.831-2.451 6.82a1.767 1.767 0 0 1-.094.099c-.696.894-1.508 1.64-2.37 2.171-1.154.745-2.365 1.124-3.593 1.124m0-17.721c-4.14 0-7.507 3.368-7.507 7.507 0 4.174 3.349 9.214 7.507 9.214 1.032 0 2.062-.326 3.061-.971.769-.473 1.493-1.141 2.157-1.988.012-.016.077-.081.092-.096 1.36-1.77 2.198-4.091 2.198-6.159 0-4.139-3.368-7.507-7.508-7.507"/><path class="clientes" clip-path="url(#b)" fill="none" stroke="#000" stroke-miterlimit="10" d="M19.221 24.688c-4.712 0-8.507-5.587-8.507-10.214 0-4.691 3.817-8.507 8.507-8.507 4.691 0 8.508 3.816 8.508 8.507 0 2.282-.916 4.831-2.451 6.82a1.767 1.767 0 0 1-.094.099c-.696.894-1.508 1.64-2.37 2.171-1.154.745-2.365 1.124-3.593 1.124zm0-17.721c-4.14 0-7.507 3.368-7.507 7.507 0 4.174 3.349 9.214 7.507 9.214 1.032 0 2.062-.326 3.061-.971.769-.473 1.493-1.141 2.157-1.988.012-.016.077-.081.092-.096 1.36-1.77 2.198-4.091 2.198-6.159 0-4.139-3.368-7.507-7.508-7.507z"/></svg>