<svg id="a" xmlns="http://www.w3.org/2000/svg" width="62" height="64.094" viewBox="0 0 62 64.094"><path class="minicon" clip-path="url(#a)" d="M31 0v4h-5v36h30v-5h5V9.562l-.281-.281-9-9L51.406 0H31zm2 2h17v9h9v22H33V2zm19 1.406L57.594 9H52V3.406zM28 6h3v29h23v3H28V6zm9 5h8V9h-8v2zm0 6h18v-2H37v2zm0 6h18v-2H37v2zm0 6h18v-2H37v2zM0 40v21h16v-2h7.844l11.781 4.906.469.188.438-.25 23.625-14.5h.032A3.973 3.973 0 0 0 62 46c0-2.197-1.803-4-4-4-.461 0-.897.073-1.312.219h-.063l-.031.031-11.875 5.313A3.986 3.986 0 0 0 41 45h-9.75l-6.844-2.937-.187-.063H16v-2H0zm2 2h12v17H2V42zm14 2h7.812l6.782 2.906.187.094H41c1.203 0 2 .785 2 2s-.797 2-2 2H27v2h14a3.99 3.99 0 0 0 3.937-3.313l12.407-5.594c.206-.072.422-.093.656-.093 1.116 0 2 .883 2 2 0 .711-.356 1.3-.906 1.656L35.906 61.875l-11.531-4.812-.187-.063H16V44z"/></svg>