<svg xmlns="http://www.w3.org/2000/svg" xmlns:xlink="http://www.w3.org/1999/xlink" width="558" height="146.594" viewBox="0 0 558 146.594"><defs><path id="a" d="M0 0h558v146.594H0z"/></defs><clipPath id="b"><use xlink:href="#a" overflow="visible"/></clipPath><path clip-path="url(#b)" fill="none" stroke="#0072BC" stroke-width="2" stroke-miterlimit="10" d="M71.519 71.605v11.006c0 10.94-8.869 19.808-19.809 19.808-9.664 0-17.712-6.92-19.457-16.076M31.901 31.59V20.809C31.901 9.868 40.771 1 51.71 1s19.808 8.868 19.808 19.809v11.07M85.954 32.183c9.348 1.588 16.466 9.727 16.466 19.527 0 10.941-8.869 19.809-19.809 19.809H20.808C9.869 71.519 1 62.65 1 51.709c0-10.94 8.869-19.808 19.808-19.808H51.71"/><circle clip-path="url(#b)" fill="none" stroke="#0072BC" stroke-width="2" stroke-miterlimit="10" cx="31.622" cy="82.532" r="3.622"/><circle clip-path="url(#b)" fill="none" stroke="#0072BC" stroke-width="2" stroke-miterlimit="10" cx="82.332" cy="31.621" r="3.622"/><path clip-path="url(#b)" fill="none" stroke="#0072BC" stroke-width="2" stroke-miterlimit="10" d="M130.41 75.092c2.017 14.853 14.75 26.3 30.156 26.3 16.809 0 30.435-13.626 30.435-30.435 0-16.808-13.192-30.367-30.001-30.367m-.434 11.638c10.344 0 18.729 8.386 18.729 18.729 0 10.344-8.385 18.73-18.729 18.73"/><path clip-path="url(#b)" fill="none" stroke="#0072BC" stroke-width="2" stroke-miterlimit="10" d="M179.073 9.252c-4.665-5.008-11.318-8.139-18.702-8.139-14.115 0-25.558 11.442-25.558 25.557 0 14.115 12.443 25.557 26.558 25.557m0-11.617c-7.699 0-14.94-6.241-14.94-13.94 0-7.7 6.241-13.941 13.94-13.941"/><circle clip-path="url(#b)" fill="none" stroke="#0072BC" stroke-width="2" stroke-miterlimit="10" cx="130.131" cy="70.957" r="3.623"/><circle clip-path="url(#b)" fill="none" stroke="#0072BC" stroke-width="2" stroke-miterlimit="10" cx="180.856" cy="12.429" r="3.622"/><path clip-path="url(#b)" fill="none" stroke="#0072BC" stroke-width="2" stroke-miterlimit="10" d="M267.478 97.88V47.156a6.243 6.243 0 1 1 12.486 0v1.951m48.384 47.212V71.347c0-16.809-13.626-30.435-30.435-30.435 0 0-10.146-1.169-17.949 6.634m-.78 23.801c0-10.344 8.386-18.729 18.729-18.729s18.729 8.385 18.729 18.729v24.582a5.855 5.855 0 0 0 11.707 0M370.584 101.521c14.919-1.957 26.438-14.721 26.438-30.175 0-16.809-13.626-30.435-30.436-30.435-16.808 0-30.434 13.626-30.434 30.435v30.436m11.705-30.435c0-10.344 8.386-18.729 18.729-18.729 10.345 0 18.73 8.385 18.73 18.729 0 10.345-8.386 18.729-18.73 18.729-10.343-.001-18.729-8.385-18.729-18.729z"/><path clip-path="url(#b)" fill="none" stroke="#0072BC" stroke-width="2" stroke-miterlimit="10" d="M336.152 101.782v33.946a5.853 5.853 0 0 0 11.706 0v-33.557"/><circle clip-path="url(#b)" fill="none" stroke="#0072BC" stroke-width="2" stroke-miterlimit="10" cx="366.587" cy="102.172" r="3.622"/><path clip-path="url(#b)" fill="none" stroke="#0072BC" stroke-width="2" stroke-miterlimit="10" d="M407.947 41.692v54.236a5.853 5.853 0 1 0 11.706 0V6.965c0-3.232-2.62-5.852-5.853-5.852s-5.853 2.62-5.853 5.852v6.055"/><circle clip-path="url(#b)" fill="none" stroke="#0072BC" stroke-width="2" stroke-miterlimit="10" cx="407.947" cy="17.11" r="3.622"/><path clip-path="url(#b)" fill="none" stroke="#0072BC" stroke-width="2" stroke-miterlimit="10" d="M526.565 101.782c-16.811 0-30.437-13.626-30.437-30.436V46.765a5.854 5.854 0 0 1 11.707 0v24.581c0 10.345 8.386 18.73 18.729 18.73s18.729-8.385 18.729-18.73V46.765a5.853 5.853 0 0 1 11.707 0v64.381c0 15.396-11.431 28.121-26.269 30.152"/><circle clip-path="url(#b)" fill="none" stroke="#0072BC" stroke-width="2" stroke-miterlimit="10" cx="526.565" cy="141.972" r="3.622"/><path clip-path="url(#b)" fill="none" stroke="#0072BC" stroke-width="2" stroke-miterlimit="10" d="M457.892 101.782c16.809 0 30.435-13.626 30.435-30.436 0-16.809-13.626-30.435-30.435-30.435s-30.435 13.626-30.435 30.435m49.164.001c0 10.345-8.386 18.729-18.729 18.729s-18.729-8.384-18.729-18.729c0-9.127 6.53-16.73 15.173-18.392"/><circle clip-path="url(#b)" fill="none" stroke="#0072BC" stroke-width="2" stroke-miterlimit="10" cx="458.282" cy="53.008" r="3.623"/><path clip-path="url(#b)" fill="none" stroke="#0072BC" stroke-width="2" stroke-miterlimit="10" d="M225.934 101.604c-15.254-1.647-27.129-14.565-27.129-30.257 0-16.809 13.626-30.435 30.435-30.435s30.435 13.626 30.435 30.435V97.88a3.902 3.902 0 1 0 7.804 0m-38.239-7.804c-10.344 0-18.729-8.385-18.729-18.729s8.385-18.729 18.729-18.729 18.729 8.385 18.729 18.729-8.386 18.729-18.729 18.729z"/><circle clip-path="url(#b)" fill="none" stroke="#0072BC" stroke-width="2" stroke-miterlimit="10" cx="230.02" cy="101.392" r="3.622"/></svg>